<svg xmlns:rdf="http://www.w3.org/1999/02/22-rdf-syntax-ns#" xmlns="http://www.w3.org/2000/svg" height="100%" viewBox="0 0 1700.8437 597.75131" width="100%" version="1.1" xmlns:cc="http://creativecommons.org/ns#" xmlns:dc="http://purl.org/dc/elements/1.1/" preserveAspectRatio="xMinYMin meet">
	<metadata>
		<rdf:RDF>
			<cc:Work rdf:about="">
				<dc:format>image/svg+xml</dc:format>
				<dc:type rdf:resource="http://purl.org/dc/dcmitype/StillImage"/>
				<dc:title/>
			</cc:Work>
		</rdf:RDF>
	</metadata>
	
	<path d="m884.9,358.17-145,0c-13.808,0-25-11.192-25-25s11.192-25,25-25h145c13.808,0,25,11.192,25,25s-11.192,25-25,25" stroke="#00964c" stroke-width="12px" fill="#00964c"/>
	<path d="m739.9,575.68c-13.808,0-25-11.193-25-25v-217.5c0-13.808,11.192-25,25-25s25,11.192,25,25v217.5c0,13.808-11.192,25-25,25" stroke="#ffeb3b" stroke-width="12px" fill="#ffeb3b"/>
	<path d="m863.65,466.92-123.75,0c-13.808,0-25-11.192-25-25s11.192-25,25-25h123.75c13.808,0,25,11.192,25,25s-11.192,25-25,25" stroke="#e84e40" stroke-width="12px" fill="#e84e40"/>
	<path d="m884.9,575.68-145,0c-13.808,0-25-11.193-25-25,0-13.808,11.192-25,25-25h145c13.808,0,25,11.192,25,25s-11.192,25-25,25" stroke="#0277bd" stroke-width="12px" fill="#0277bd"/>
	<path d="m254.05,575.07c-13.808,0-25-11.192-25-25v-217.5c0-13.808,11.192-25,25-25s25,11.192,25,25v217.5c0,13.808-11.192,25-25,25" stroke="#00964c" stroke-width="12px" fill="#00964c"/>
	<path d="m41.002,573.52c-13.808,0-25-11.192-25-25v-217.5c0-13.808,11.192-25,25-25,13.807,0,25,11.192,25,25v217.5c0,13.807-11.192,25-25,25" stroke="#ffeb3b" stroke-width="12px" fill="#ffeb3b"/>
	<path d="m146.41,499.27c-7.68,0-15.256-3.525-20.156-10.185l-105.38-143.24c-8.1812-11.122-5.7988-26.771,5.3212-34.952,11.124-8.1825,26.77-5.8012,34.952,5.3212l105.39,143.24c8.1825,11.122,5.7988,26.771-5.3212,34.952-4.4613,3.2825-9.6525,4.865-14.796,4.865" stroke="#0277bd" stroke-width="12px" fill="#0277bd"/>
	<path d="m144.93,500.82c-5.2825,0-10.604-1.6663-15.13-5.1138-10.984-8.365-13.106-24.052-4.74-35.036l109.11-143.24c8.3637-10.986,24.051-13.106,35.036-4.74,10.982,8.3663,13.105,24.052,4.7387,35.036l-109.12,143.24c-4.9188,6.4588-12.37,9.8538-19.906,9.8538" stroke="#e84e40" stroke-width="12px" fill="#e84e40"/>
	<path d="m342.14,574.04c-13.808,0-25-11.192-25-25v-217.5c0-13.808,11.192-25,25-25s25,11.192,25,25v217.5c0,13.808-11.192,25-25,25" stroke="#0277bd" stroke-width="12px" fill="#0277bd"/>
	<path d="m566.07,574.04-128.75,0c-13.808,0-25-11.192-25-25s11.192-25,25-25h128.75c13.808,0,25,11.192,25,25s-11.192,25-25,25" stroke="#ffeb3b" stroke-width="12px" fill="#ffeb3b"/>
	<path d="m437.32,574.04c-13.808,0-25-11.192-25-25v-217.5c0-13.808,11.192-25,25-25s25,11.192,25,25v217.5c0,13.808-11.192,25-25,25" stroke="#0277bd" stroke-width="12px" fill="#0277bd"/>
	<path d="m1147.6,492.75c-13.808,0-25-11.192-25-25v-140.42c0-13.808,11.192-25,25-25s25,11.192,25,25v140.42c0,13.808-11.192,25-25,25" stroke="#0277bd" stroke-width="12px" fill="#0277bd"/>
	<path d="m1056.2,573.97c-62.911,0-116.06-48.645-116.06-106.23,0-13.808,11.192-25,25-25s25,11.192,25,25c0,29.951,30.87,56.225,66.06,56.225,17.038,0,34.211-6.435,47.116-17.656,12.43-10.808,19.274-24.505,19.274-38.569,0-13.808,11.192-25,25-25,13.807,0,25,11.192,25,25,0,57.58-53.3,106.23-116.39,106.23" stroke="#ffeb3b" stroke-width="12px" fill="#ffeb3b"/>
	<path d="m965.14,492.75c-13.808,0-25-11.192-25-25v-140.42c0-13.808,11.192-25,25-25,13.807,0,25,11.192,25,25v140.42c0,13.808-11.193,25-25,25" stroke="#e84e40" stroke-width="12px" fill="#e84e40"/>
	<path d="m1291,442.15c-13.808,0-25-8.2792-25-18.493v-103.87c0-10.214,11.192-18.493,25-18.493s25,8.2792,25,18.493v103.87c0,10.214-11.192,18.493-25,18.493" stroke="#ffeb3b" stroke-width="12px" fill="#ffeb3b"/>
	<path d="m646.38,345.75c-13.808,0-25,11.192-25,25v178.41c0,13.808,11.192,25,25,25s25-11.192,25-25v-178.41c0-13.808-11.192-25-25-25z" stroke="#0277bd" stroke-width="12px" fill="#0277bd"/>
	<path d="m639.46,343.97c0-28.506,0-28.506,3.5234-33.831,1.9378-2.9291,5.7751-8.7594,8.5273-12.956,2.7522-4.1968,7.325-10.113,10.162-13.147,2.8369-3.0342,5.5094-5.8231,5.9389-6.1976,0.42942-0.37443,3.8581-2.7436,7.6193-5.2649s10.714-6.8461,15.451-9.6108c4.7371-2.7647,8.9318-5.4886,9.3216-6.0531,0.38983-0.56451,2.7699-1.7671,5.2891-2.6724,2.5192-0.90532,8.74-3.7608,13.824-6.3455,5.0842-2.5847,12.795-6.5455,17.135-8.8018,4.3398-2.2562,12.385-7.0198,17.878-10.586,5.493-3.5659,14.853-10.612,20.801-15.658,5.9473-5.0458,12.925-12.012,15.505-15.48,2.5806-3.4681,6.3537-9.4555,8.3848-13.305,2.031-3.8499,4.6063-10.799,5.7228-15.443,1.1165-4.6437,2.3046-8.6855,2.6402-8.9816,0.33562-0.29614,0.61022,11.05,0.61022,25.214,0,25.119-0.0665,25.932-2.711,33.056-1.4911,4.0168-4.3297,10.067-6.3081,13.444-1.9784,3.3776-6.8351,9.5126-10.793,13.633-3.9576,4.1207-10.943,10.218-15.523,13.549-4.5798,3.3313-12.588,8.5143-17.796,11.518-5.2078,3.0034-16.57,9.0426-25.25,13.42-8.6797,4.3779-21.226,11.147-27.88,15.042-6.6544,3.8951-14.147,8.7466-16.651,10.781-2.5035,2.0346-6.4317,4.8297-8.7294,6.2114s-6.4514,4.8559-9.2305,7.7205-6.7372,7.3196-8.7958,9.9-5.4791,7.806-7.6012,11.612c-2.1221,3.8063-4.9913,10.971-6.376,15.922s-2.2455,9.6602-1.9128,10.465c0.38271,0.92552-0.0161,1.4423-1.0858,1.407-1.5148-0.05-1.6907-3.0216-1.6907-28.561zm0.55104-44.187c-0.48047-2.6643-0.56694-17.365-0.19215-32.668,0.52212-21.32,1.0152-28.17,2.1091-29.303,0.78522-0.81357,3.5047-5.0233,6.0432-9.3549,2.5386-4.3316,7.5964-11.188,11.24-15.236,3.6433-4.048,11.46-11.033,17.372-15.522,5.911-4.489,13.351-9.382,16.534-10.873,3.1826-1.4913,14.681-7.2389,25.553-12.772,10.871-5.5336,24.881-13.18,31.133-16.992,6.252-3.8121,14.711-9.5777,18.799-12.812,4.0872-3.2347,9.9096-8.3047,12.939-11.267,3.0292-2.9619,7.8144-8.596,10.634-12.52,2.8195-3.9242,6.4899-10.34,8.1566-14.258,1.6667-3.9176,3.6292-9.7033,4.3612-12.857,0.732-3.1539,1.7294-6.1329,2.2165-6.6201,0.48709-0.48711,0.88561,11.955,0.88561,27.648,0,21.996-0.3109,28.815-1.3569,29.762-0.74629,0.6753-3.0556,4.4638-5.1318,8.419-2.0762,3.9551-5.4899,9.4166-7.5858,12.137-2.096,2.72-3.8109,5.2715-3.8109,5.6701,0,0.39856-5.7996,5.1694-12.888,10.602-8.3583,6.4057-19.174,13.329-30.773,19.7-9.837,5.4023-23.173,12.375-29.636,15.496-6.463,3.1205-14.356,7.5731-17.541,9.8946-3.1845,2.3216-7.8062,5.238-10.27,6.4808-2.4642,1.2429-9.4841,6.6882-15.6,12.101-6.1157,5.4125-12.69,11.564-14.609,13.67-1.9192,2.1062-5.0692,6.7262-7,10.267-1.9308,3.5405-4.7432,10.08-6.2499,14.533-1.5067,4.4525-3.1256,11.116-3.5976,14.809-0.85821,6.713-0.85821,6.713-1.7318,1.869zm0.50713-103.75c0.004-10.196,0.43576-20.908,0.96091-23.804,0.52516-2.8959,1.9692-7.7052,3.2089-10.687,1.2398-2.9821,4.5258-8.5324,7.3023-12.334s8.032-9.7333,11.679-13.182c3.6468-3.4482,10.226-8.8071,14.62-11.909,4.394-3.1016,12.487-8.161,17.984-11.243,5.4971-3.0823,14.091-7.5485,19.098-9.9249,5.0066-2.3764,10.406-5.303,12-6.5036,1.5932-1.2005,3.4148-2.1698,4.0481-2.1539,0.63331,0.0159,3.9921-1.5805,7.464-3.5476,3.4719-1.967,9.1531-5.2823,12.625-7.3672s7.1334-4.5649,8.1366-5.5111c1.0033-0.94619,3.9072-2.9634,6.453-4.4828,2.5459-1.5194,8.2747-6.2314,12.731-10.471,4.456-4.2398,10.173-10.489,12.705-13.888,2.5318-3.3985,6.0348-9.4043,7.7844-13.346,1.7496-3.9418,3.9903-10.227,4.9794-13.967,1.1059-4.1813,2.1193-6.3267,2.6317-5.5711,0.4583,0.67577,0.84051,10.992,0.84938,22.924,0.0127,17.077-0.29809,22.096-1.4598,23.576-0.81174,1.0341-2.9361,5.2858-4.7208,9.4482s-5.5264,10.743-8.3149,14.624c-2.7886,3.8806-8.0026,10.077-11.587,13.771-3.5842,3.6933-10.422,9.3749-15.196,12.626-4.7737,3.251-14.361,9.3561-21.304,13.567-6.9438,4.2109-18.78,10.646-26.302,14.301-7.5224,3.6544-16.044,7.8994-18.938,9.4333-2.8932,1.5339-8.8112,5.0334-13.151,7.7766s-12.318,8.7821-17.73,13.42c-5.4115,4.6376-11.93,11.03-14.486,14.205-2.5559,3.1751-6.0045,8.4784-7.6636,11.785-1.6591,3.3068-3.5774,8.4857-4.2629,11.509-0.68552,3.023-1.4496,5.4897-1.6978,5.4815-0.2483-0.008-0.44871-8.3572-0.44537-18.553z" stroke="#0277bd" stroke-width="12px" fill="#0277bd"/>
	<path d="m1427.6,574.88c-13.808,0-25-11.192-25-25v-217.5c0-13.808,11.192-25,25-25s25,11.192,25,25v217.5c0,13.808-11.192,25-25,25" stroke="#00964c" stroke-width="12px" fill="#00964c"/>
	<path d="m1371.2,375.7c-10.544,0-20.346-6.7238-23.776-17.294-4.2587-13.134,2.935-27.234,16.068-31.494l56.468-18.316c13.132-4.2625,27.234,2.935,31.494,16.068,4.26,13.134-2.9338,27.234-16.068,31.494l-56.468,18.316c-2.5613,0.8313-5.1625,1.2263-7.7175,1.2263" stroke="#e84e40" stroke-width="12px" fill="#e84e40"/>
	<path d="m1585.6,581.75c-54.746,0-99.282-39.022-99.282-86.986,0-13.808,11.191-25,25-25,13.806,0,25,11.192,25,25,0,20.049,22.569,36.986,49.282,36.986,13.806,0,25,11.192,25,25s-11.194,25-25,25" stroke="#00964c" stroke-miterlimit="4" stroke-dasharray="none" stroke-width="12" fill="#00964c"/>
	<path d="m1659.8,519.76c-13.809,0-25-11.192-25-25,0-24.299-17.961-38.235-49.28-38.235-26.714,0-49.282,17.51-49.282,38.235,0,13.808-11.194,25-25,25-13.808,0-25-11.192-25-25,0-48.652,44.536-88.235,99.282-88.235,29.739,0,54.915,8.8162,72.802,25.496,17.074,15.919,26.478,38.2,26.478,62.739,0,13.808-11.194,25-25,25" stroke="#0277bd" stroke-miterlimit="4" stroke-dasharray="none" stroke-width="12" fill="#0277bd"/>
	<path d="m1511.2,519.59c-11.634,0-22.049-8.16-24.468-19.999-6.8825-33.675-8.1125-63.961-3.66-90.018,4.1363-24.19,13.115-44.889,26.692-61.519,20.639-25.285,52.245-40.381,84.542-40.381,26.568,0,52.336,9.0112,70.694,24.724,10.491,8.9775,11.716,24.76,2.7362,35.249-8.9762,10.488-24.758,11.718-35.249,2.7375-9.16-7.84-23.789-12.71-38.181-12.71-6.5325,0-29.148,1.5862-45.81,22-18.438,22.586-22.856,60.591-12.779,109.91,2.7637,13.526-5.9613,26.735-19.488,29.499-1.6888,0.345-3.3738,0.51125-5.0313,0.51125" stroke="#ffeb3b" stroke-miterlimit="4" stroke-dasharray="none" stroke-width="12" fill="#ffeb3b"/>
	<path d="m1585.6,581.75c-13.809,0-25-11.192-25-25s11.191-25,25-25c26.711,0,49.28-16.938,49.28-36.986,0-13.808,11.191-25,25-25,13.806,0,25,11.192,25,25,0,47.964-44.536,86.986-99.28,86.986" stroke="#e84e40" stroke-miterlimit="4" stroke-dasharray="none" stroke-width="12" fill="#e84e40"/>
</svg>
