<?xml version="1.0" encoding="UTF-8" standalone="no"?>
<svg
   xmlns:dc="http://purl.org/dc/elements/1.1/"
   xmlns:cc="http://creativecommons.org/ns#"
   xmlns:rdf="http://www.w3.org/1999/02/22-rdf-syntax-ns#"
   xmlns:svg="http://www.w3.org/2000/svg"
   xmlns="http://www.w3.org/2000/svg"
   xmlns:sodipodi="http://sodipodi.sourceforge.net/DTD/sodipodi-0.dtd"
   xmlns:inkscape="http://www.inkscape.org/namespaces/inkscape"
   version="1.1"
   width="100%"
   height="100%"
   viewBox="0 0 1700.8437 597.75131"
   preserveAspectRatio="xMinYMin meet"
   id="svg6325"
   inkscape:version="0.48.4 r9939"
   sodipodi:docname="logo16SHADOW.svg">
  <metadata
     id="metadata34">
    <rdf:RDF>
      <cc:Work
         rdf:about="">
        <dc:format>image/svg+xml</dc:format>
        <dc:type
           rdf:resource="http://purl.org/dc/dcmitype/StillImage" />
        <dc:title></dc:title>
      </cc:Work>
    </rdf:RDF>
  </metadata>
  <defs
     id="defs32">
    <filter
       id="filter17789"
       style="color-interpolation-filters:sRGB;"
       inkscape:label="Drop Shadow">
      <feFlood
         id="feFlood17791"
         flood-opacity="0.673"
         flood-color="rgb(0,0,0)"
         result="flood" />
      <feComposite
         id="feComposite17793"
         in2="SourceGraphic"
         in="flood"
         operator="in"
         result="composite1" />
      <feGaussianBlur
         id="feGaussianBlur17795"
         in="composite"
         stdDeviation="10"
         result="blur" />
      <feOffset
         id="feOffset17797"
         dx="1"
         dy="1"
         result="offset" />
      <feComposite
         id="feComposite17799"
         in2="offset"
         in="SourceGraphic"
         operator="over"
         result="composite2" />
    </filter>
  </defs>
  <sodipodi:namedview
     pagecolor="#ffffff"
     bordercolor="#666666"
     borderopacity="1"
     objecttolerance="10"
     gridtolerance="10"
     guidetolerance="10"
     inkscape:pageopacity="0"
     inkscape:pageshadow="2"
     inkscape:window-width="1334"
     inkscape:window-height="718"
     id="namedview30"
     showgrid="false"
     inkscape:zoom="0.30052038"
     inkscape:cx="1829.5516"
     inkscape:cy="163.12806"
     inkscape:window-x="32"
     inkscape:window-y="24"
     inkscape:window-maximized="1"
     inkscape:current-layer="svg6325"
     fit-margin-top="10"
     fit-margin-left="10"
     fit-margin-right="10"
     fit-margin-bottom="10" />
  <script
     type="text/javascript"
     id="script28">

for(var i=1; i&lt;=24;i++){
var path = document.querySelector('#path' +i);
var length = path.getTotalLength();
// Clear any previous transition
path.style.transition = path.style.WebkitTransition =
  'none';
// Set up the starting positions
path.style.strokeDasharray = length + ' ' + length;
path.style.strokeDashoffset = length;

path.style.fillOpacity=0;
// Trigger a layout so styles are calculated &amp; the browser
// picks up the starting position before animating
path.getBoundingClientRect();
// Define our transition
path.style.transition = path.style.WebkitTransition =
  'all 10s ease-in-out ';
// Go!
path.style.strokeDashoffset = '0';
path.style.fillOpacity=.5;
}
        

</script>
  <g
     id="g17732">
    <g
       id="g17485">
      <path
         inkscape:connector-curvature="0"
         style="fill:none;stroke:#00964c;stroke-width:12px;stroke-opacity:1;"
         id="path22"
         d="m 884.89701,358.17495 -145,0 c -13.8075,0 -25,-11.1925 -25,-25 0,-13.8075 11.1925,-25 25,-25 l 145,0 c 13.8075,0 25,11.1925 25,25 0,13.8075 -11.1925,25 -25,25" />
      <path
         inkscape:connector-curvature="0"
         style="fill:none;stroke:#ffc107;stroke-width:12px;"
         id="path21"
         d="m 739.89711,575.67505 c -13.8076,0 -25.0001,-11.1926 -25.0001,-25.0001 l 0,-217.5 c 0,-13.8075 11.1925,-25 25.0001,-25 13.8075,0 24.9999,11.1925 24.9999,25 l 0,217.5 c 0,13.8075 -11.1925,25.0001 -25,25.0001" />
      <path
         inkscape:connector-curvature="0"
         style="fill:none;stroke:#f50057;stroke-width:12px;"
         id="path20"
         d="m 863.64701,466.92495 -123.75,0 c -13.8075,0 -25,-11.1925 -25,-25 0,-13.8075 11.1925,-25 25,-25 l 123.75,0 c 13.8075,0 25,11.1925 25,25 0,13.8075 -11.1925,25 -25,25" />
      <path
         inkscape:connector-curvature="0"
         style="fill:none;stroke:#0091ea;stroke-width:12px;"
         id="path23"
         d="m 884.89701,575.67505 -145,0 c -13.8075,0 -25,-11.1926 -25,-25.0001 0,-13.8075 11.1925,-25 25,-25 l 145,0 c 13.8075,0 25,11.1925 25,25 0,13.8075 -11.1925,25.0001 -25,25.0001" />
    </g>
    <g
       id="g17468">
      <path
         inkscape:connector-curvature="0"
         style="fill:none;stroke:#00964c;stroke-width:12px;stroke-opacity:1;"
         id="path19"
         d="m 254.0527,575.07495 c -13.8075,0 -25,-11.1925 -25,-25 l 0,-217.5001 c 0,-13.8075 11.1925,-25 25,-25 13.8075,0 25,11.1925 25,25 l 0,217.5001 c 0,13.8075 -11.1925,25 -25,25" />
      <path
         inkscape:connector-curvature="0"
         style="fill:none;stroke:#ffc107;stroke-width:12px;"
         id="path18"
         d="m 41.00235,573.51935 c -13.8075,0 -25,-11.1925 -25,-24.99998 l 0,-217.50003 c 0,-13.8075 11.1925,-25 25,-25 13.80749,0 24.99999,11.1925 24.99999,25 l 0,217.50003 c 0,13.80748 -11.1925,24.99998 -24.99999,24.99998" />
      <path
         inkscape:connector-curvature="0"
         style="fill:none;stroke:#0091ea;stroke-width:12px;"
         id="path17"
         d="m 146.40884,499.26507 c -7.68,0 -15.2562,-3.525 -20.1562,-10.185 L 20.8651,345.83507 c -8.18125,-11.1225 -5.79875,-26.77125 5.32125,-34.9525 11.12375,-8.1825 26.76999,-5.80125 34.95249,5.32125 l 105.3875,143.24375 c 8.1825,11.1225 5.7988,26.77125 -5.3212,34.9525 -4.4613,3.2825 -9.6525,4.865 -14.7963,4.865" />
      <path
         inkscape:connector-curvature="0"
         style="fill:none;stroke:#f50057;stroke-width:12px;"
         id="path16"
         d="m 144.9267,500.82065 c -5.2825,0 -10.6037,-1.6663 -15.13,-5.1138 -10.9837,-8.365 -13.1062,-24.0525 -4.74,-35.0362 l 109.1088,-143.2438 c 8.3637,-10.9862 24.0513,-13.10622 35.0363,-4.74 10.9825,8.3663 13.105,24.0525 4.7387,35.0363 L 164.833,490.96685 c -4.9188,6.4588 -12.37,9.8538 -19.9063,9.8538" />
    </g>
    <g
       id="g17474">
      <path
         inkscape:connector-curvature="0"
         style="fill:none;stroke:#4d69ff;stroke-width:12px;"
         id="path15"
         d="m 342.14184,574.04015 c -13.8075,0 -25,-11.1925 -25,-25 l 0,-217.5 c 0,-13.8075 11.1925,-25 25,-25 13.8075,0 25,11.1925 25,25 l 0,217.5 c 0,13.8075 -11.1925,25 -25,25" />
    </g>
    <g
       id="g17477">
      <path
         inkscape:connector-curvature="0"
         style="fill:none;stroke:#ffc107;stroke-width:12px;"
         id="path14"
         d="m 566.0707,574.04015 -128.75,0 c -13.8075,0 -25,-11.1925 -25,-25 0,-13.8075 11.1925,-25 25,-25 l 128.75,0 c 13.8075,0 25,11.1925 25,25 0,13.8075 -11.1925,25 -25,25" />
      <path
         inkscape:connector-curvature="0"
         style="fill:none;stroke:#0091ea;stroke-width:12px;"
         id="path13"
         d="m 437.3207,574.04015 c -13.8075,0 -25,-11.1925 -25,-25 l 0,-217.5 c 0,-13.8075 11.1925,-25 25,-25 13.8075,0 25,11.1925 25,25 l 0,217.5 c 0,13.8075 -11.1925,25 -25,25" />
    </g>
    <g
       id="g17491">
      <path
         inkscape:connector-curvature="0"
         style="fill:none;stroke:#0091ea;stroke-width:12px;"
         id="path12"
         d="m 1147.5934,492.74715 c -13.8075,0 -25,-11.1925 -25,-25 l 0,-140.4175 c 0,-13.8075 11.1925,-24.99999 25,-24.99999 13.8075,0 25,11.19249 25,24.99999 l 0,140.4175 c 0,13.8075 -11.1925,25 -25,25" />
      <path
         inkscape:connector-curvature="0"
         style="fill:none;stroke:#ffeb3b;stroke-width:12px;"
         id="path11"
         d="m 1056.203,573.97275 c -62.91133,0 -116.06003,-48.6451 -116.06003,-106.2251 0,-13.8075 11.1925,-25 25,-25 13.8075,0 25,11.1925 25,25 0,29.9512 30.87003,56.225 66.06003,56.225 17.0375,0 34.2112,-6.435 47.1162,-17.6563 12.43,-10.8075 19.2738,-24.505 19.2738,-38.5687 0,-13.8075 11.1925,-25 25,-25 13.8074,0 25,11.1925 25,25 0,57.58 -53.3,106.2251 -116.3901,106.2251" />
      <path
         inkscape:connector-curvature="0"
         style="fill:none;stroke:#ff2d6f;stroke-width:12px;"
         id="path10"
         d="m 965.14347,492.74715 c -13.8076,0 -25,-11.1925 -25,-25 l 0,-140.4175 c 0,-13.8075 11.1924,-24.99999 25,-24.99999 13.8074,0 25,11.19249 25,24.99999 l 0,140.4175 c 0,13.8075 -11.1926,25 -25,25" />
    </g>
    <g
       id="g17496">
      <path
         inkscape:connector-curvature="0"
         style="fill:none;stroke:#ffeb3b;stroke-width:12px;"
         id="path3"
         d="m 1291.0106,442.15291 c -13.8075,0 -25,-8.2792 -25,-18.4928 l 0,-103.8688 c 0,-10.21362 11.1925,-18.49286 25,-18.49286 13.8075,0 25,8.27924 25,18.49286 l 0,103.8688 c 0,10.2136 -11.1925,18.4928 -25,18.4928" />
    </g>
    <g
       id="g17481">
      <path
         inkscape:connector-curvature="0"
         style="fill:none;stroke:#0277bd;stroke-width:12px;"
         id="path2"
         d="m 646.375,345.75133 c -13.8075,0 -25,11.1925 -25,25 l 0,38 0,102.40625 0,38 c 0,13.8075 11.1925,25 25,25 13.8075,0 25,-11.1925 25,-25 l 0,-38 0,-102.40625 0,-38 c 0,-13.8075 -11.1925,-25 -25,-25 z" />
      <path
         inkscape:connector-curvature="0"
         style="fill:none;stroke:#0277bd;stroke-width:12px;"
         id="path1"
         d="m 639.45832,343.96794 c 0,-28.50561 0,-28.50561 3.52337,-33.83125 1.93785,-2.92911 5.77512,-8.75942 8.52727,-12.95623 2.75217,-4.19681 7.32505,-10.11311 10.162,-13.14733 2.83692,-3.03423 5.50941,-5.82313 5.93886,-6.19757 0.42942,-0.37443 3.85814,-2.74363 7.61933,-5.26488 3.7612,-2.52127 10.71434,-6.84612 15.4514,-9.61082 4.73708,-2.76469 8.93181,-5.48857 9.32163,-6.05307 0.38983,-0.56451 2.7699,-1.76709 5.28907,-2.6724 2.51915,-0.90532 8.74003,-3.76081 13.82418,-6.34553 5.08417,-2.58474 12.79472,-6.54553 17.13456,-8.80177 4.33984,-2.25625 12.3849,-7.01981 17.87792,-10.5857 5.493,-3.5659 14.85324,-10.61186 20.80054,-15.6577 5.94726,-5.04585 12.92461,-12.0118 15.50521,-15.47989 2.5806,-3.4681 6.35372,-9.45553 8.38476,-13.30538 2.03104,-3.84986 4.60628,-10.79915 5.72279,-15.44288 1.11651,-4.64374 2.3046,-8.68546 2.64022,-8.9816 0.33562,-0.29614 0.61022,11.0501 0.61022,25.21388 0,25.11933 -0.0665,25.93183 -2.71105,33.05553 -1.49109,4.01677 -4.32974,10.06672 -6.30809,13.44434 -1.97836,3.3776 -6.83508,9.51262 -10.79268,13.63334 -3.95758,4.12073 -10.94277,10.21787 -15.52263,13.54921 -4.57985,3.33134 -12.58795,8.51428 -17.79575,11.51763 -5.20782,3.00335 -16.57032,9.04256 -25.25,13.42046 -8.67969,4.37789 -21.22579,11.14666 -27.88021,15.04172 -6.65443,3.89506 -14.14728,8.74656 -16.6508,10.78111 -2.50351,2.03456 -6.43172,4.82966 -8.72937,6.21136 -2.29766,1.3817 -6.45139,4.85591 -9.23051,7.72047 -2.77913,2.86455 -6.73724,7.31956 -8.7958,9.90001 -2.05855,2.58045 -5.47909,7.80595 -7.60117,11.61223 -2.12206,3.80629 -4.99126,10.97136 -6.37596,15.92241 -1.38472,4.95104 -2.24546,9.66016 -1.91281,10.4647 0.38271,0.92552 -0.0161,1.44232 -1.08582,1.40702 -1.51478,-0.05 -1.69068,-3.02165 -1.69068,-28.56142 z m 0.55104,-44.18654 c -0.48047,-2.66426 -0.56694,-17.36499 -0.19215,-32.66829 0.52212,-21.31972 1.01516,-28.17003 2.1091,-29.30347 0.78522,-0.81357 3.50466,-5.0233 6.04319,-9.35493 2.53855,-4.33162 7.59642,-11.18767 11.23973,-15.23565 3.64331,-4.04799 11.4605,-11.03285 17.37155,-15.52191 5.91103,-4.48905 13.35124,-9.38203 16.53379,-10.87328 3.18255,-1.49126 14.6812,-7.23887 25.55251,-12.77245 10.87132,-5.53358 24.88136,-13.18003 31.13341,-16.99212 6.25204,-3.81207 14.71141,-9.57766 18.7986,-12.81239 4.08717,-3.23473 9.90962,-8.30466 12.93878,-11.26654 3.02916,-2.96187 7.81441,-8.59595 10.63386,-12.52017 2.81946,-3.92423 6.48992,-10.34023 8.15658,-14.25783 1.66666,-3.91757 3.62922,-9.703347 4.36123,-12.857247 0.732,-3.15391 1.72944,-6.13293 2.2165,-6.62006 0.48709,-0.48711 0.88561,11.95456 0.88561,27.648177 0,21.99559 -0.3109,28.81517 -1.35686,29.76165 -0.74629,0.6753 -3.05561,4.46384 -5.13183,8.41899 -2.07623,3.95514 -5.48986,9.41662 -7.58585,12.1366 -2.09597,2.72 -3.81087,5.27154 -3.81087,5.6701 0,0.39856 -5.79961,5.16941 -12.88802,10.6019 -8.35832,6.40573 -19.17415,13.32947 -30.77345,19.69958 -9.83697,5.40227 -23.17329,12.37541 -29.63625,15.49586 -6.46297,3.12046 -14.35634,7.57306 -17.54088,9.89463 -3.18452,2.3216 -7.8062,5.23798 -10.27039,6.48084 -2.46417,1.24287 -9.48406,6.68816 -15.59974,12.10065 -6.11567,5.41246 -12.68965,11.56411 -14.60886,13.67031 -1.9192,2.1062 -5.06919,6.72623 -6.99997,10.26672 -1.93078,3.54051 -4.74323,10.08027 -6.24992,14.53282 -1.50667,4.45253 -3.12558,11.11638 -3.59762,14.80855 -0.85821,6.71304 -0.85821,6.71304 -1.73178,1.86896 z m 0.50713,-103.75203 c 0.004,-10.19617 0.43576,-20.9079 0.96091,-23.8038 0.52516,-2.89591 1.96916,-7.70517 3.20893,-10.68727 1.23976,-2.98208 4.52578,-8.5324 7.3023,-12.33402 2.7765,-3.80162 8.03196,-9.7333 11.67879,-13.18153 3.64684,-3.44821 10.22566,-8.8071 14.61962,-11.90862 4.39395,-3.10155 12.48664,-8.16103 17.98378,-11.2433 5.49714,-3.08228 14.0911,-7.54848 19.0977,-9.92491 5.00661,-2.37645 10.40642,-5.303038 11.99958,-6.503588 1.59317,-1.20054 3.41483,-2.16981 4.04812,-2.15394 0.63331,0.0159 3.99209,-1.58053 7.46399,-3.54757 3.47186,-1.96702 9.15311,-5.28226 12.62499,-7.36719 3.47187,-2.084919 7.13337,-4.56492 8.13664,-5.51109 1.00329,-0.94619 3.90715,-2.96345 6.45303,-4.48281 2.54588,-1.51935 8.27471,-6.23137 12.73071,-10.47115 4.45602,-4.23976 10.17334,-10.48927 12.70518,-13.8878 2.53183,-3.39853 6.03478,-9.40427 7.78435,-13.3461 1.74955,-3.94183 3.9903,-10.22688 4.9794,-13.96681 1.10586,-4.181269 2.11929,-6.326669 2.63166,-5.571149 0.4583,0.67577 0.84051,10.991719 0.84938,22.924339 0.0127,17.07709 -0.29809,22.09591 -1.45982,23.5758 -0.81174,1.034081 -2.93609,5.28577 -4.72076,9.448231 -1.78467,4.16245 -5.52639,10.743099 -8.31494,14.623639 -2.78855,3.880571 -8.00263,10.077311 -11.58684,13.770538 -3.58421,3.69326 -10.42246,9.37488 -15.19612,12.62584 -4.77366,3.25096 -14.36062,9.35613 -21.30437,13.56707 -6.94375,4.21092 -18.77969,10.64617 -26.3021,14.30055 -7.52238,3.65439 -16.04426,7.89937 -18.9375,9.4333 -2.89321,1.53392 -8.81119,5.0334 -13.15103,7.7766 -4.33984,2.7432 -12.31822,8.78208 -17.72973,13.41973 -5.4115,4.63765 -11.93028,11.0299 -14.48617,14.20502 -2.55589,3.1751 -6.00451,8.47844 -7.66357,11.78522 -1.65907,3.30675 -3.57737,8.48566 -4.2629,11.50869 -0.68552,3.02302 -1.44955,5.48971 -1.69784,5.48151 -0.2483,-0.008 -0.44871,-8.35724 -0.44537,-18.55343 z" />
    </g>
    <g
       id="g17499">
      <path
         inkscape:connector-curvature="0"
         style="fill:none;stroke:#00964c;stroke-width:12px;stroke-opacity:1;"
         id="path9"
         d="m 1427.5633,574.87684 c -13.8075,0 -25,-11.1925 -25,-25 l 0,-217.5 c 0,-13.8075 11.1925,-25 25,-25 13.8075,0 25,11.1925 25,25 l 0,217.5 c 0,13.8075 -11.1925,25 -25,25" />
      <path
         inkscape:connector-curvature="0"
         style="fill:none;stroke:#ff2d6f;stroke-width:12px;"
         id="path8"
         d="m 1371.2083,375.69964 c -10.5438,0 -20.3463,-6.7238 -23.7763,-17.2938 -4.2587,-13.1337 2.935,-27.2337 16.0675,-31.4937 l 56.4675,-18.3163 c 13.1325,-4.26252 27.2338,2.935 31.4938,16.0675 4.26,13.1338 -2.9338,27.2338 -16.0675,31.4938 l -56.4675,18.3162 c -2.5613,0.8313 -5.1625,1.2263 -7.7175,1.2263" />
      <path
         inkscape:connector-curvature="0"
         d="m 1585.5553,581.7461 c -54.7462,0 -99.2825,-39.0225 -99.2825,-86.98625 0,-13.8075 11.1913,-25 25,-25 13.8063,0 25,11.1925 25,25 0,20.04875 22.5688,36.98625 49.2825,36.98625 13.8063,0 25,11.1925 25,25 0,13.8075 -11.1937,25 -25,25"
         style="fill:none;stroke:#00964c;stroke-width:12;stroke-miterlimit:4;stroke-dasharray:none;"
         id="path17766" />
      <path
         inkscape:connector-curvature="0"
         d="m 1659.8352,519.7599 c -13.8087,0 -25,-11.1925 -25,-25 0,-24.29875 -17.9612,-38.235 -49.28,-38.235 -26.7137,0 -49.2825,17.51 -49.2825,38.235 0,13.8075 -11.1937,25 -25,25 -13.8075,0 -25,-11.1925 -25,-25 0,-48.6525 44.5363,-88.235 99.2825,-88.235 29.7388,0 54.915,8.81625 72.8025,25.49625 17.0738,15.91875 26.4775,38.2 26.4775,62.73875 0,13.8075 -11.1937,25 -25,25"
         style="fill:none;stroke:#4d69ff;stroke-width:12;stroke-miterlimit:4;stroke-dasharray:none;"
         id="path17750" />
      <path
         inkscape:connector-curvature="0"
         d="m 1511.1974,519.5891 c -11.6337,0 -22.0487,-8.16 -24.4675,-19.99875 -6.8825,-33.675 -8.1125,-63.96125 -3.66,-90.0175 4.1363,-24.19 13.115,-44.88875 26.6925,-61.51875 20.6388,-25.285 52.245,-40.38125 84.5425,-40.38125 26.5675,0 52.3363,9.01125 70.6938,24.72375 10.4912,8.9775 11.7162,24.76 2.7362,35.24875 -8.9762,10.4875 -24.7575,11.7175 -35.2487,2.7375 -9.16,-7.84 -23.7888,-12.71 -38.1813,-12.71 -6.5325,0 -29.1475,1.58625 -45.81,22 -18.4375,22.58625 -22.8562,60.59125 -12.7787,109.90625 2.7637,13.52625 -5.9613,26.735 -19.4875,29.49875 -1.6888,0.345 -3.3738,0.51125 -5.0313,0.51125"
         style="fill:none;stroke:#ffeb3b;stroke-width:12;stroke-miterlimit:4;stroke-dasharray:none;"
         id="path17798" />
      <path
         inkscape:connector-curvature="0"
         d="m 1585.5553,581.7461 c -13.8087,0 -25,-11.1925 -25,-25 0,-13.8075 11.1913,-25 25,-25 26.7113,0 49.28,-16.9375 49.28,-36.98625 0,-13.8075 11.1913,-25 25,-25 13.8063,0 25,11.1925 25,25 0,47.96375 -44.5362,86.98625 -99.28,86.98625"
         style="fill:none;stroke:#ff2d6f;stroke-width:12;stroke-miterlimit:4;stroke-dasharray:none;"
         id="path17782" />
    </g>
  </g>
</svg>
